HIERARCHY
ROOT Hips
{
	OFFSET 0.00000 0.00000 0.00000
	CHANNELS 6 Xposition Yposition Zposition Zrotation Yrotation Xrotation 
	JOINT LHipJoint
	{
		OFFSET 0 0 0
		CHANNELS 3 Zrotation Yrotation Xrotation
		JOINT LeftUpLeg
		{
			OFFSET 1.48831 -1.59570 0.95625
			CHANNELS 3 Zrotation Yrotation Xrotation
			JOINT LeftLeg
			{
				OFFSET 2.20856 -6.06797 0.00000
				CHANNELS 3 Zrotation Yrotation Xrotation
				JOINT LeftFoot
				{
					OFFSET 2.62924 -7.22379 0.00000
					CHANNELS 3 Zrotation Yrotation Xrotation
					JOINT LeftToeBase
					{
						OFFSET 0.16802 -0.46163 2.41673
						CHANNELS 3 Zrotation Yrotation Xrotation
						End Site
						{
							OFFSET 0.00000 -0.00000 1.23760
						}
					}
				}
			}
		}
	}
	JOINT RHipJoint
	{
		OFFSET 0 0 0
		CHANNELS 3 Zrotation Yrotation Xrotation
		JOINT RightUpLeg
		{
			OFFSET -1.56796 -1.59570 0.95625
			CHANNELS 3 Zrotation Yrotation Xrotation
			JOINT RightLeg
			{
				OFFSET -2.29239 -6.29829 0.00000
				CHANNELS 3 Zrotation Yrotation Xrotation
				JOINT RightFoot
				{
					OFFSET -2.66963 -7.33475 0.00000
					CHANNELS 3 Zrotation Yrotation Xrotation
					JOINT RightToeBase
					{
						OFFSET -0.18185 -0.49964 2.34359
						CHANNELS 3 Zrotation Yrotation Xrotation
						End Site
						{
							OFFSET -0.00000 -0.00000 1.20477
						}
					}
				}
			}
		}
	}
	JOINT LowerBack
	{
		OFFSET 0 0 0
		CHANNELS 3 Zrotation Yrotation Xrotation
		JOINT Spine
		{
			OFFSET 0.03505 2.15832 -0.34324
			CHANNELS 3 Zrotation Yrotation Xrotation
			JOINT Spine1
			{
				OFFSET -0.01089 2.17963 0.04689
				CHANNELS 3 Zrotation Yrotation Xrotation
				JOINT Neck
				{
					OFFSET 0 0 0
					CHANNELS 3 Zrotation Yrotation Xrotation
					JOINT Neck1
					{
						OFFSET 0.04686 1.69404 0.22159
						CHANNELS 3 Zrotation Yrotation Xrotation
						JOINT Head
						{
							OFFSET 0.00265 1.69305 -0.01513
							CHANNELS 3 Zrotation Yrotation Xrotation
							End Site
							{
								OFFSET -0.00415 1.80215 -0.03034
							}
						}
					}
				}
				JOINT LeftShoulder
				{
					OFFSET 0 0 0
					CHANNELS 3 Zrotation Yrotation Xrotation
					JOINT LeftArm
					{
						OFFSET 3.67184 1.11724 -0.19002
						CHANNELS 3 Zrotation Yrotation Xrotation
						JOINT LeftForeArm
						{
							OFFSET 5.17714 -0.00000 -0.00000
							CHANNELS 3 Zrotation Yrotation Xrotation
							JOINT LeftHand
							{
								OFFSET 3.43679 -0.00000 -0.00000
								CHANNELS 3 Zrotation Yrotation Xrotation
								JOINT LeftFingerBase
								{
									OFFSET 0 0 0
									CHANNELS 3 Zrotation Yrotation Xrotation
									JOINT LeftHandIndex1
									{
										OFFSET 0.57312 -0.00000 -0.00000
										CHANNELS 3 Zrotation Yrotation Xrotation
										End Site
										{
											OFFSET 0.46206 -0.00000 -0.00000
										}
									}
								}
								JOINT LThumb
								{
									OFFSET 0 0 0
									CHANNELS 3 Zrotation Yrotation Xrotation
									End Site
									{
										OFFSET 0.46912 -0.00000 0.46912
									}
								}
							}
						}
					}
				}
				JOINT RightShoulder
				{
					OFFSET 0 0 0
					CHANNELS 3 Zrotation Yrotation Xrotation
					JOINT RightArm
					{
						OFFSET -3.59596 0.95831 -0.26050
						CHANNELS 3 Zrotation Yrotation Xrotation
						JOINT RightForeArm
						{
							OFFSET -5.23908 -0.00000 -0.00000
							CHANNELS 3 Zrotation Yrotation Xrotation
							JOINT RightHand
							{
								OFFSET -3.46485 -0.00000 -0.00000
								CHANNELS 3 Zrotation Yrotation Xrotation
								JOINT RightFingerBase
								{
									OFFSET 0 0 0
									CHANNELS 3 Zrotation Yrotation Xrotation
									JOINT RightHandIndex1
									{
										OFFSET -0.60875 -0.00000 -0.00000
										CHANNELS 3 Zrotation Yrotation Xrotation
										End Site
										{
											OFFSET -0.49079 -0.00000 -0.00000
										}
									}
								}
								JOINT RThumb
								{
									OFFSET 0 0 0
									CHANNELS 3 Zrotation Yrotation Xrotation
									End Site
									{
										OFFSET -0.49829 -0.00000 0.49829
									}
								}
							}
						}
					}
				}
			}
		}
	}
}
MOTION
Frames: 14
Frame Time: .0083333
3.6348 16.3808 -22.8487 4.4447 -134.6820 1.8044 0.0000 0.0000 0.0000 -7.7927 -5.3857 -15.7669 2.1851 9.2415 26.5537 0.5135 1.3953 -14.1130 0.6002 -4.9592 -13.7922 0.0000 0.0000 0.0000 10.7270 14.9920 -13.5739 -3.8990 -12.0247 35.8196 0.1690 -19.0997 -25.6234 -0.1506 2.5007 -6.8915 0.5220 0.7062 10.0128 -2.3190 -0.1233 11.5950 -2.7862 -0.4001 6.6113 4.3817 3.3355 -14.0661 -3.0054 3.6749 24.6981 -1.3725 1.5031 10.3602 0.0000 -0.0000 0.0000 -66.6539 -14.9486 61.1968 106.2916 -58.9730 -74.0602 -0.0000 0.0000 -56.6786 13.4230 -10.4654 -2.4822 -7.1250 0.0000 -0.0000 -9.6324 19.3059 5.9909 0.0000 -0.0000 0.0000 52.1007 37.1770 68.3394 -116.6920 57.1289 -82.8932 0.0000 -0.0000 -45.7880 -42.3266 -5.3320 4.8377 7.1250 -0.0000 -0.0000 -13.2202 -36.8827 -2.6977
3.6084 16.3862 -22.8504 4.5949 -134.4480 1.6776 0.0000 0.0000 0.0000 -7.7581 -5.4927 -15.7247 2.1897 9.2506 26.5824 0.5146 1.3243 -14.0947 0.6030 -4.9706 -13.8249 0.0000 0.0000 0.0000 10.7079 14.9417 -13.8725 -4.0279 -12.1974 36.4340 0.2383 -19.1817 -25.1422 -0.1580 2.5608 -7.0581 0.4778 0.7058 9.9258 -2.3585 -0.1196 11.5983 -2.8039 -0.3976 6.6632 4.3023 3.3021 -13.9944 -2.9074 3.6206 24.7243 -1.3326 1.4811 10.3498 0.0000 -0.0000 0.0000 -66.9068 -14.7836 61.1037 106.7044 -58.9190 -74.4139 -0.0000 0.0000 -56.0548 13.3040 -10.4952 -2.4663 -7.1250 0.0000 -0.0000 -9.7154 19.2822 6.0493 0.0000 -0.0000 0.0000 52.0980 36.9714 68.2119 -117.2283 57.0044 -83.3433 0.0000 -0.0000 -45.4752 -42.2355 -5.1550 4.6635 7.1250 -0.0000 -0.0000 -13.1146 -36.6443 -2.7535
3.5830 16.3913 -22.8525 4.7421 -134.2290 1.5477 0.0000 0.0000 0.0000 -7.7210 -5.5683 -15.6798 2.1931 9.2572 26.6032 0.5166 1.2228 -14.0743 0.6049 -4.9785 -13.8472 0.0000 0.0000 0.0000 10.6720 14.8803 -14.1919 -4.1625 -12.3735 37.0665 0.3133 -19.2483 -24.5702 -0.1668 2.6309 -7.2527 0.4132 0.7070 9.8401 -2.3887 -0.1152 11.6019 -2.8005 -0.3968 6.7145 4.2051 3.2715 -13.9147 -2.8182 3.5789 24.7189 -1.2910 1.4629 10.3267 0.0000 -0.0000 0.0000 -67.1616 -14.6071 61.0084 107.1217 -58.8628 -74.7712 -0.0000 0.0000 -55.4176 13.1639 -10.5005 -2.4407 -7.1250 0.0000 -0.0000 -9.8139 19.2844 6.1119 0.0000 -0.0000 0.0000 52.0650 36.7681 68.0841 -117.7727 56.8748 -83.7995 0.0000 -0.0000 -45.1772 -42.1410 -4.9857 4.4964 7.1250 -0.0000 -0.0000 -13.0079 -36.4162 -2.8044
3.5586 16.3953 -22.8553 4.8803 -134.0520 1.4101 0.0000 0.0000 0.0000 -7.6858 -5.5942 -15.6194 2.1955 9.2620 26.6184 0.5197 1.1013 -14.0602 0.6072 -4.9878 -13.8738 0.0000 0.0000 0.0000 10.6224 14.8458 -14.5186 -4.3037 -12.5539 37.7207 0.3972 -19.3294 -23.9162 -0.1805 2.7362 -7.5452 0.3124 0.7174 9.7676 -2.4097 -0.1013 11.6037 -2.7673 -0.3949 6.7565 4.0885 3.2454 -13.8258 -2.7393 3.5524 24.6879 -1.2477 1.4494 10.2929 0.0000 -0.0000 0.0000 -67.4091 -14.4149 60.9133 107.5455 -58.8042 -75.1338 -0.0000 0.0000 -54.7846 13.0298 -10.4977 -2.4143 -7.1250 0.0000 -0.0000 -9.9083 19.2944 6.1703 0.0000 -0.0000 0.0000 52.0179 36.5687 67.9652 -118.3149 56.7425 -84.2533 0.0000 -0.0000 -44.8842 -42.0451 -4.8732 4.3809 7.1250 -0.0000 -0.0000 -12.9093 -36.2627 -2.8318
3.5349 16.3987 -22.8580 5.0124 -133.8930 1.2713 0.0000 0.0000 0.0000 -7.6527 -5.6015 -15.5522 2.1969 9.2648 26.6271 0.5230 0.9722 -14.0479 0.6098 -4.9980 -13.9029 0.0000 0.0000 0.0000 10.5559 14.8145 -14.8636 -4.4515 -12.7382 38.3961 0.4755 -19.3720 -23.2223 -0.1950 2.8438 -7.8441 0.1985 0.7264 9.6959 -2.4269 -0.0904 11.6074 -2.7225 -0.3959 6.8000 3.9646 3.2266 -13.7415 -2.6781 3.5434 24.6425 -1.2070 1.4414 10.2556 -0.0000 0.0000 0.0000 -67.6255 -14.2191 60.8266 107.9784 -58.7428 -75.5040 -0.0000 0.0000 -54.1837 12.9412 -10.5107 -2.4003 -7.1250 0.0000 -0.0000 -9.9704 19.2860 6.2120 -0.0000 0.0000 0.0000 51.9704 36.3813 67.8553 -118.8484 56.6091 -84.6990 0.0000 -0.0000 -44.6030 -41.9665 -4.7857 4.2910 7.1250 -0.0000 -0.0000 -12.8295 -36.1433 -2.8518
3.5126 16.4012 -22.8611 5.1258 -133.7810 1.1386 0.0000 0.0000 0.0000 -7.6295 -5.5687 -15.4734 2.1973 9.2655 26.6293 0.5268 0.8449 -14.0420 0.6129 -5.0106 -13.9387 0.0000 0.0000 0.0000 10.4681 14.8134 -15.2285 -4.6069 -12.9269 39.0956 0.5521 -19.3910 -22.4702 -0.2157 2.9901 -8.2513 0.0638 0.7565 9.6331 -2.4523 -0.0532 11.6116 -2.6759 -0.3856 6.8402 3.8585 3.2053 -13.6602 -2.6290 3.5305 24.5822 -1.1739 1.4325 10.2141 0.0000 0.0000 0.0000 -67.7753 -14.0387 60.7905 108.4197 -58.6784 -75.8812 -0.0000 0.0000 -53.6412 12.9101 -10.5485 -2.4029 -7.1250 0.0000 -0.0000 -9.9910 19.2495 6.2335 0.0000 0.0000 0.0000 51.9471 36.1816 67.7307 -119.3649 56.4768 -85.1300 0.0000 -0.0000 -44.3328 -41.9054 -4.7936 4.2888 7.1250 -0.0000 -0.0000 -12.7792 -36.1498 -2.8381
3.4907 16.4034 -22.8640 5.2281 -133.6610 1.0168 0.0000 0.0000 0.0000 -7.6135 -5.5488 -15.3918 2.1958 9.2625 26.6200 0.5301 0.7214 -14.0334 0.6167 -5.0259 -13.9824 0.0000 0.0000 0.0000 10.3618 14.7944 -15.6211 -4.7694 -13.1193 39.8169 0.6196 -19.3703 -21.7027 -0.2365 3.1296 -8.6399 -0.0597 0.7831 9.5577 -2.4876 -0.0200 11.6220 -2.6460 -0.3762 6.8942 3.7813 3.1862 -13.5885 -2.6102 3.5223 24.5110 -1.1557 1.4254 10.1720 0.0000 -0.0000 0.0000 -67.8530 -13.8883 60.7982 108.8598 -58.6124 -76.2570 -0.0000 0.0000 -53.1829 12.9266 -10.5989 -2.4174 -7.1250 0.0000 -0.0000 -9.9778 19.1978 6.2367 0.0000 -0.0000 0.0000 51.9539 35.9818 67.6002 -119.8681 56.3450 -85.5491 0.0000 -0.0000 -44.0876 -41.8954 -4.7926 4.2865 7.1250 -0.0000 -0.0000 -12.7706 -36.1479 -2.8367
3.4691 16.4051 -22.8673 5.3109 -133.5510 0.9038 0.0000 0.0000 0.0000 -7.6118 -5.5219 -15.2924 2.1918 9.2547 26.5952 0.5333 0.6042 -14.0281 0.6202 -5.0400 -14.0228 0.0000 0.0000 0.0000 10.2353 14.7734 -16.0262 -4.9396 -13.3154 40.5609 0.6715 -19.2860 -20.9502 -0.2547 3.2470 -8.9673 -0.2017 0.8001 9.4716 -2.5225 -0.0014 11.6418 -2.6053 -0.3760 6.9640 3.6922 3.1800 -13.5359 -2.6138 3.5414 24.4285 -1.1394 1.4275 10.1306 -0.0000 -0.0000 0.0000 -67.9023 -13.7472 60.8050 109.2777 -58.5482 -76.6136 -0.0000 0.0000 -52.8091 12.9915 -10.6950 -2.4517 -7.1250 0.0000 -0.0000 -9.9292 19.0974 6.2279 -0.0000 -0.0000 0.0000 51.9693 35.8197 67.5075 -120.3645 56.2120 -85.9620 0.0000 -0.0000 -43.8824 -41.9217 -4.8631 4.3531 7.1250 -0.0000 -0.0000 -12.8036 -36.2415 -2.8144
3.4483 16.4065 -22.8712 5.3684 -133.4630 0.7984 0.0000 0.0000 0.0000 -7.6278 -5.4749 -15.1672 2.1847 9.2407 26.5511 0.5367 0.4919 -14.0270 0.6233 -5.0523 -14.0577 0.0000 0.0000 0.0000 10.0918 14.7592 -16.4390 -5.1166 -13.5139 41.3240 0.7180 -19.1805 -20.1786 -0.2782 3.3926 -9.3737 -0.3714 0.8105 9.3806 -2.5569 0.0058 11.6727 -2.5485 -0.3846 7.0481 3.5906 3.1909 -13.4977 -2.6504 3.5963 24.3384 -1.1279 1.4414 10.0911 -0.0000 -0.0000 0.0000 -67.9297 -13.6156 60.7958 109.6709 -58.4862 -76.9489 -0.0000 0.0000 -52.5147 13.0700 -10.8056 -2.4922 -7.1250 0.0000 -0.0000 -9.8707 18.9816 6.2159 -0.0000 -0.0000 0.0000 51.9843 35.7054 67.4586 -120.8543 56.0780 -86.3688 0.0000 -0.0000 -43.7184 -41.9759 -4.9493 4.4382 7.1250 -0.0000 -0.0000 -12.8627 -36.3577 -2.7906
3.4287 16.4073 -22.8759 5.4160 -133.4170 0.6901 0.0000 0.0000 0.0000 -7.6464 -5.3932 -15.0150 2.1741 9.2197 26.4850 0.5401 0.3900 -14.0315 0.6253 -5.0601 -14.0800 0.0000 0.0000 0.0000 9.9468 14.7807 -16.8539 -5.3001 -13.7140 42.1038 0.7571 -19.0603 -19.4290 -0.3024 3.5357 -9.7741 -0.5685 0.8194 9.2964 -2.5846 0.0089 11.7041 -2.4693 -0.3982 7.1286 3.4747 3.2179 -13.4652 -2.7232 3.6863 24.2428 -1.1222 1.4662 10.0522 -0.0000 -0.0000 0.0000 -67.9605 -13.4743 60.7656 110.0235 -58.4295 -77.2494 -0.0000 0.0000 -52.2750 13.1488 -10.9455 -2.5397 -7.1250 0.0000 -0.0000 -9.8115 18.8360 6.2097 -0.0000 -0.0000 0.0000 51.9881 35.6315 67.4684 -121.3422 55.9415 -86.7733 0.0000 -0.0000 -43.5810 -42.0438 -5.0417 4.5312 7.1250 -0.0000 -0.0000 -12.9344 -36.4829 -2.7663
3.4104 16.4077 -22.8811 5.4527 -133.4090 0.5824 0.0000 0.0000 0.0000 -7.6676 -5.2819 -14.8388 2.1599 9.1914 26.3959 0.5436 0.2934 -14.0397 0.6245 -5.0570 -14.0713 0.0000 0.0000 0.0000 9.8010 14.8349 -17.2724 -5.4885 -13.9136 42.8925 0.7941 -18.9508 -18.6874 -0.3296 3.6896 -10.2050 -0.7644 0.8429 9.2211 -2.6224 0.0311 11.7351 -2.4021 -0.4024 7.2048 3.3839 3.2459 -13.4333 -2.8279 3.7797 24.1414 -1.1314 1.4915 10.0129 0.0000 0.0000 0.0000 -67.9543 -13.3552 60.7530 110.3350 -58.3784 -77.5147 -0.0000 0.0000 -52.0747 13.2070 -11.1003 -2.5870 -7.1250 0.0000 -0.0000 -9.7664 18.6765 6.2155 0.0000 0.0000 0.0000 51.9887 35.5630 67.4859 -121.8172 55.8059 -87.1665 0.0000 -0.0000 -43.4479 -42.1153 -5.1057 4.5999 7.1250 -0.0000 -0.0000 -13.0050 -36.5715 -2.7532
3.3932 16.4078 -22.8871 5.4671 -133.4460 0.4779 0.0000 0.0000 0.0000 -7.7015 -5.1307 -14.6320 2.1424 9.1566 26.2864 0.5476 0.1999 -14.0554 0.6228 -5.0501 -14.0516 0.0000 0.0000 0.0000 9.6494 14.9246 -17.6846 -5.6797 -14.1106 43.6823 0.8333 -18.8713 -17.9373 -0.3585 3.8465 -10.6451 -0.9628 0.8877 9.1649 -2.6767 0.0813 11.7612 -2.3516 -0.3926 7.2660 3.3253 3.2688 -13.4056 -2.9507 3.8618 24.0486 -1.1539 1.5123 9.9783 0.0000 0.0000 0.0000 -67.9123 -13.2488 60.7685 110.6002 -58.3342 -77.7405 -0.0000 0.0000 -51.8672 13.2460 -11.2590 -2.6315 -7.1250 0.0000 -0.0000 -9.7350 18.5140 6.2304 0.0000 0.0000 0.0000 51.9952 35.4860 67.5008 -122.2637 55.6759 -87.5356 0.0000 -0.0000 -43.2819 -42.1719 -5.1299 4.6306 7.1250 -0.0000 -0.0000 -13.0568 -36.6071 -2.7530
3.3763 16.4076 -22.8929 5.4630 -133.4930 0.3854 0.0000 0.0000 0.0000 -7.7483 -4.9773 -14.4109 2.1222 9.1160 26.1590 0.5511 0.1131 -14.0687 0.6205 -5.0411 -14.0257 0.0000 0.0000 0.0000 9.4872 15.0109 -18.1029 -5.8711 -14.3022 44.4622 0.8748 -18.8255 -17.1822 -0.3856 3.9879 -11.0426 -1.1283 0.9446 9.1171 -2.7554 0.1500 11.7808 -2.3455 -0.3700 7.3165 3.3106 3.2828 -13.3788 -3.0876 3.9233 23.9707 -1.1914 1.5258 9.9500 0.0000 0.0000 0.0000 -67.8202 -13.1681 60.8271 110.8159 -58.2977 -77.9241 -0.0000 0.0000 -51.6305 13.2887 -11.4335 -2.6805 -7.1250 0.0000 -0.0000 -9.7008 18.3353 6.2469 0.0000 0.0000 0.0000 52.0121 35.3902 67.4917 -122.6729 55.5546 -87.8733 0.0000 -0.0000 -43.0679 -42.2431 -5.0403 4.5616 7.1250 -0.0000 -0.0000 -13.1029 -36.4945 -2.8001
3.3603 16.4074 -22.8988 5.4474 -133.5560 0.3018 0.0000 0.0000 0.0000 -7.7995 -4.8166 -14.1819 2.1000 9.0713 26.0187 0.5543 0.0318 -14.0799 0.6174 -5.0285 -13.9900 0.0000 0.0000 0.0000 9.3251 15.1002 -18.5237 -6.0604 -14.4866 45.2238 0.9164 -18.8050 -16.4312 -0.4084 4.1023 -11.3646 -1.2588 1.0181 9.0753 -2.8591 0.2430 11.7948 -2.3860 -0.3314 7.3589 3.3383 3.2828 -13.3508 -3.2216 3.9542 23.8973 -1.2389 1.5294 9.9230 0.0000 0.0000 0.0000 -67.6679 -13.1202 60.9325 110.9878 -58.2684 -78.0703 -0.0000 0.0000 -51.3370 13.3309 -11.5868 -2.7249 -7.1250 0.0000 -0.0000 -9.6678 18.1778 6.2591 0.0000 0.0000 0.0000 52.0505 35.2740 67.4467 -123.0298 55.4470 -88.1674 0.0000 -0.0000 -42.7934 -42.3038 -4.9353 4.4767 7.1250 -0.0000 -0.0000 -13.1375 -36.3609 -2.8517
